<svg xmlns="http://www.w3.org/2000/svg" viewBox="0 0 1280 640" width="1280" height="640" role="img" aria-label="oraclemcp — safe-by-default Oracle Database MCP server in pure Rust">
  <defs>
    <linearGradient id="bg" x1="0" y1="0" x2="1" y2="1">
      <stop offset="0" stop-color="#0a0f1c"/>
      <stop offset="1" stop-color="#10203a"/>
    </linearGradient>
    <linearGradient id="accent" x1="0" y1="0" x2="1" y2="0">
      <stop offset="0" stop-color="#34d399"/>
      <stop offset="1" stop-color="#22d3ee"/>
    </linearGradient>
    <linearGradient id="shield" x1="0" y1="0" x2="0" y2="1">
      <stop offset="0" stop-color="#0e2a44"/>
      <stop offset="1" stop-color="#0a1830"/>
    </linearGradient>
    <radialGradient id="glow" cx="0.82" cy="0.32" r="0.6">
      <stop offset="0" stop-color="#22d3ee" stop-opacity="0.2"/>
      <stop offset="1" stop-color="#22d3ee" stop-opacity="0"/>
    </radialGradient>
  </defs>

  <rect width="1280" height="640" fill="url(#bg)"/>
  <rect width="1280" height="640" fill="url(#glow)"/>
  <rect x="0" y="0" width="1280" height="6" fill="url(#accent)"/>

  <text x="96" y="210" font-family="ui-monospace, 'SF Mono', 'JetBrains Mono', Menlo, monospace" font-size="108" font-weight="700" fill="#e8f0ff">oracle<tspan fill="url(#accent)">mcp</tspan></text>
  <text x="100" y="270" font-family="system-ui, -apple-system, Segoe UI, Roboto, sans-serif" font-size="36" font-weight="500" fill="#9fb3d1">Safe-by-default Oracle Database MCP server, in pure Rust.</text>

  <g font-family="system-ui, -apple-system, Segoe UI, Roboto, sans-serif" font-size="30" fill="#cde9f5">
    <g transform="translate(100,340)">
      <circle cx="0" cy="-9" r="6" fill="url(#accent)"/>
      <text x="22" y="0">Fail-closed SQL guard — write/DDL needs explicit, byte-verified approval</text>
    </g>
    <g transform="translate(100,396)">
      <circle cx="0" cy="-9" r="6" fill="url(#accent)"/>
      <text x="22" y="0">Agent-first: per-tool JSON Schemas, structured errors, capability discovery</text>
    </g>
    <g transform="translate(100,452)">
      <circle cx="0" cy="-9" r="6" fill="url(#accent)"/>
      <text x="22" y="0">Engine-free core &#183; #![forbid(unsafe_code)] &#183; stdio + Streamable HTTP</text>
    </g>
  </g>

  <text x="100" y="556" font-family="ui-monospace, monospace" font-size="24" fill="#6f86a8">cargo install oraclemcp &#160;&#183;&#160; Apache-2.0 OR MIT</text>

  <!-- Shield + check motif -->
  <g transform="translate(1010,150)">
    <path d="M110 0 L205 33 L205 124 C205 193 161 231 110 252 C59 231 15 193 15 124 L15 33 Z" fill="url(#shield)" stroke="url(#accent)" stroke-width="4"/>
    <path d="M67 126 L98 159 L157 82" fill="none" stroke="url(#accent)" stroke-width="14" stroke-linecap="round" stroke-linejoin="round"/>
  </g>
</svg>
